<?xml version="1.0" standalone="no"?>
<svg viewBox="0 0 200 200" xmlns="http://www.w3.org/2000/svg">
  <path fill="#8A3FFC" d="M42.9,-62.8C56.9,-57.8,70.2,-48,74,-35.2C77.7,-22.3,71.8,-6.4,66.6,7.5C61.3,21.4,56.8,33.3,49.4,44C42,54.6,31.7,63.9,20.2,65.9C8.7,67.9,-4.1,62.6,-16,57.7C-27.9,52.7,-39,48.1,-45.2,39.8C-51.4,31.5,-52.6,19.6,-53.7,8.1C-54.8,-3.5,-55.7,-14.6,-55.6,-29.7C-55.4,-44.8,-54.3,-63.8,-44.9,-70.8C-35.4,-77.9,-17.7,-73.1,-1.6,-70.6C14.5,-68.1,29,-67.9,42.9,-62.8Z" transform="translate(100 100)" />
</svg>
